HIERARCHY
ROOT Hips
{
	OFFSET 0.00 0.00 0.00
	CHANNELS 6 Xposition Yposition Zposition Xrotation Yrotation Zrotation
	JOINT Spine
	{
		OFFSET 0.00000 7.06766 0.00000
		CHANNELS 3 Xrotation Yrotation Zrotation
		JOINT Head
		{
			OFFSET 0.00000 15.03989 0.00000
			CHANNELS 3 Xrotation Yrotation Zrotation
			End Site
			{
				OFFSET 0.00000 4.52755 0.00000
			}
		}
		JOINT LeftShoulder
		{
			OFFSET 0.00000 10.53037 0.00000
			CHANNELS 3 Xrotation Yrotation Zrotation
			JOINT LeftArm
			{
				OFFSET 7.02886 0.00000 0.00000
				CHANNELS 3 Xrotation Yrotation Zrotation
				JOINT LeftForeArm
				{
					OFFSET 10.79770 0.00000 0.00000
					CHANNELS 3 Yrotation Zrotation Xrotation
					JOINT LeftHand
					{
						OFFSET 7.90744 0.00000 0.00000
						CHANNELS 3 Xrotation Yrotation Zrotation
						JOINT LeftHandThumb1
						{
							OFFSET 0.00000 0.00000 0.00000
							CHANNELS 3 Xrotation Zrotation Yrotation
							End Site
							{
								OFFSET 0.00000 0.00000 3.93700
							}
						}
						End Site
						{
							OFFSET 3.93700 0.00000 0.00000
						}
					}
				}
			}
		}
		JOINT RightShoulder
		{
			OFFSET 0.00000 10.53037 0.00000
			CHANNELS 3 Xrotation Yrotation Zrotation
			JOINT RightArm
			{
				OFFSET -7.02886 0.00000 0.00000
				CHANNELS 3 Xrotation Yrotation Zrotation
				JOINT RightForeArm
				{
					OFFSET -10.79770 0.00000 0.00000
					CHANNELS 3 Yrotation Zrotation Xrotation
					JOINT RightHand
					{
						OFFSET -7.90744 0.00000 0.00000
						CHANNELS 3 Xrotation Yrotation Zrotation
						JOINT RightHandThumb1
						{
							OFFSET 0.00000 0.00000 0.00000
							CHANNELS 3 Xrotation Zrotation Yrotation
							End Site
							{
								OFFSET 0.00000 0.00000 3.93700
							}
						}
						End Site
						{
							OFFSET -3.93700 0.00000 0.00000
						}
					}
				}
			}
		}
	}
	JOINT LeftUpLeg
	{
		OFFSET 4.01300 0.00000 0.00000
		CHANNELS 3 Xrotation Yrotation Zrotation
		JOINT LeftLeg
		{
			OFFSET 0.00000 -16.89976 0.00000
			CHANNELS 3 Xrotation Yrotation Zrotation
			JOINT LeftFoot
			{
				OFFSET 0.00000 -17.38918 0.00000
				CHANNELS 3 Xrotation Yrotation Zrotation
				JOINT LeftToeBase
				{
					OFFSET 0.00000 -1.27456 4.75673
					CHANNELS 3 Xrotation Yrotation Zrotation
					End Site
					{
						OFFSET 0.00000 0.00000 2.95275
					}
				}
			}
		}
	}
	JOINT RightUpLeg
	{
		OFFSET -4.01300 0.00000 0.00000
		CHANNELS 3 Xrotation Yrotation Zrotation
		JOINT RightLeg
		{
			OFFSET 0.00000 -16.89976 0.00000
			CHANNELS 3 Xrotation Yrotation Zrotation
			JOINT RightFoot
			{
				OFFSET 0.00000 -17.38918 0.00000
				CHANNELS 3 Xrotation Yrotation Zrotation
				JOINT RightToeBase
				{
					OFFSET 0.00000 -1.27456 4.75673
					CHANNELS 3 Xrotation Yrotation Zrotation
					End Site
					{
						OFFSET 0.00000 0.00000 2.95275
					}
				}
			}
		}
	}
}
MOTION
Frames: 20
Frame Time: 0.008333
 27.3101 24.6025 -25.6331 -90.7518 15.6943 92.3241 -48.7884 -3.6523 2.6075 -63.5406 3.4347 4.6863 -59.3648 -25.0474 25.8291 -37.4120 -36.2172 11.2956 -10.5599 0.0000 -23.4099 -3.7440 -0.4466 96.7926 33.1476 -0.0000 26.2537 -27.3566 6.1116 -34.3259 -70.3603 30.5495 -11.4105 15.4673 0.0000 14.6720 -1.8925 0.3921 -101.7020 32.8623 0.0000 -24.3270 8.9655 6.8695 9.8402 86.2394 -0.0000 0.0000 -40.4760 28.4606 12.8091 23.6201 0.0000 0.0000 10.8784 2.5353 -11.2082 85.2867 -0.0000 -0.0000 -37.7531 -36.6543 -11.1781 20.9050 -0.0000 -0.0000
 27.3314 24.5962 -25.6319 -90.7447 15.6819 92.3341 -48.7966 -3.6305 2.6304 -63.4330 3.4310 4.6898 -59.3773 -25.0665 25.8073 -37.3989 -36.1383 11.2177 -10.6340 0.0000 -23.3805 -3.8182 -0.4570 96.8145 33.1476 -0.0000 26.2537 -27.1745 6.1180 -34.3285 -70.2329 30.5099 -11.6256 15.5680 0.0000 14.5591 -1.9769 0.4125 -101.7807 32.8623 0.0000 -24.3270 8.9859 6.8573 9.8351 86.3124 0.0000 -0.0000 -40.5053 28.4479 12.7574 23.6037 -0.0000 0.0000 10.9038 2.5760 -11.1859 85.3529 -0.0000 -0.0000 -37.8504 -36.6909 -11.2616 21.0445 0.0000 -0.0000
 27.3528 24.5917 -25.6313 -90.7254 15.6746 92.3427 -48.8292 -3.6514 2.6671 -63.2426 3.4010 4.7084 -59.3770 -25.0878 25.8057 -37.3358 -36.0429 11.1640 -10.7266 0.0000 -23.3476 -3.8666 -0.4627 96.8140 33.1476 -0.0000 26.2537 -27.2648 6.1953 -34.2647 -70.1627 30.6096 -11.4798 15.6724 0.0000 14.6150 -1.8264 0.3789 -101.7167 32.8623 0.0000 -24.3270 9.0102 6.8831 9.8261 86.3449 -0.0000 0.0000 -40.5763 28.4836 12.8013 23.6169 0.0000 -0.0000 10.9272 2.6180 -11.1722 85.4198 -0.0000 0.0000 -37.8521 -36.7371 -11.3018 20.8108 0.0000 -0.0000
 27.3728 24.5844 -25.6300 -90.7218 15.6827 92.3597 -48.8671 -3.6421 2.6659 -63.1516 3.3448 4.8077 -59.4085 -25.0699 25.8346 -37.3071 -36.0273 11.0063 -10.7053 0.0000 -23.3901 -3.8379 -0.4656 96.9074 33.1476 -0.0000 26.2537 -27.2745 6.1698 -34.2117 -70.2450 30.6704 -11.3145 15.8135 0.0000 14.7551 -1.7589 0.3623 -101.6369 32.8623 0.0000 -24.3270 9.0075 6.8718 9.8222 86.4141 -0.0000 -0.0000 -40.6176 28.4567 12.7669 23.6194 -0.0000 0.0000 10.9230 2.6462 -11.1631 85.4894 0.0000 -0.0000 -37.9924 -36.7906 -11.3302 20.9674 0.0000 -0.0000
 27.3925 24.5758 -25.6302 -90.7089 15.6889 92.3907 -48.8939 -3.6115 2.6695 -63.0005 3.3723 4.8592 -59.2926 -24.9841 25.8974 -37.4191 -36.0033 10.8926 -10.7170 0.0000 -23.3587 -3.9194 -0.4757 96.9088 33.1476 -0.0000 26.2537 -27.1169 6.1399 -34.2191 -70.3130 30.5986 -11.3454 16.0288 0.0000 14.8139 -1.6994 0.3480 -101.5687 32.8623 0.0000 -24.3270 9.0103 6.8767 9.7965 86.4690 -0.0000 -0.0000 -40.6787 28.4367 12.8051 23.7158 0.0000 0.0000 10.9204 2.6701 -11.1854 85.5702 0.0000 -0.0000 -38.0515 -36.8190 -11.3655 20.8807 0.0000 -0.0000
 27.4173 24.5672 -25.6248 -90.7524 15.6533 92.4043 -48.8781 -3.6265 2.6409 -62.8674 3.2716 4.8239 -59.3283 -24.9685 25.8963 -37.4293 -35.9864 10.7003 -10.7158 0.0000 -23.3384 -3.5203 -0.4312 96.9748 33.1476 -0.0000 26.2537 -27.1386 6.0954 -34.1914 -70.4210 30.6053 -11.1429 16.2620 0.0000 14.9906 -1.7079 0.3475 -101.4974 32.8623 0.0000 -24.3270 9.0364 6.8336 9.8390 86.5545 -0.0000 -0.0000 -40.7428 28.4091 12.7994 23.6820 -0.0000 0.0000 10.9747 2.6443 -11.1476 85.6382 0.0000 -0.0000 -38.1566 -36.8163 -11.4332 21.0708 -0.0000 0.0000
 27.4392 24.5576 -25.6180 -90.7875 15.6237 92.4091 -48.8665 -3.6269 2.6223 -62.6702 3.1993 4.8562 -59.2944 -24.9405 25.8764 -37.3666 -35.9742 10.6793 -10.7248 0.0000 -23.4312 -3.6915 -0.4599 97.0911 33.1476 -0.0000 26.2537 -27.1469 6.1183 -34.1637 -70.2536 30.5949 -11.1827 16.3956 0.0000 15.0247 -1.7701 0.3602 -101.4969 32.8623 0.0000 -24.3270 9.0510 6.8100 9.8948 86.6293 0.0000 -0.0000 -40.8105 28.3801 12.8295 23.7810 -0.0000 0.0000 11.0208 2.6359 -11.0993 85.6956 0.0000 0.0000 -38.2020 -36.8546 -11.5736 20.7425 0.0000 -0.0000
 27.4589 24.5462 -25.6162 -90.7753 15.6290 92.4138 -48.9045 -3.6088 2.6583 -62.4420 3.0745 4.7641 -59.1242 -24.8970 25.9011 -37.5652 -35.8606 10.6135 -10.8975 0.0000 -23.4043 -4.0009 -0.5066 97.2051 33.1476 -0.0000 26.2537 -27.0679 6.1305 -34.1597 -70.1102 30.6057 -11.2383 16.4454 0.0000 15.0592 -1.7485 0.3422 -101.0693 32.8623 0.0000 -24.3270 9.0407 6.8169 9.9016 86.6996 -0.0000 0.0000 -40.8741 28.3806 12.8434 23.7663 0.0000 0.0000 10.9987 2.6579 -11.1034 85.7853 -0.0000 0.0000 -38.3061 -36.8814 -11.5838 20.9020 0.0000 -0.0000
 27.4810 24.5332 -25.6138 -90.7704 15.6186 92.4265 -48.9154 -3.5974 2.6699 -62.2634 3.0136 4.7656 -59.1604 -24.9553 25.8657 -37.5789 -35.7110 10.5006 -11.1267 0.0000 -23.2921 -4.0363 -0.5174 97.2930 33.1476 -0.0000 26.2537 -27.0635 6.1565 -34.1509 -70.0235 30.6257 -11.2000 16.4627 0.0000 15.1269 -1.6751 0.3300 -101.1409 32.8623 0.0000 -24.3270 9.0405 6.8115 9.9050 86.7841 -0.0000 -0.0000 -40.9456 28.3702 12.8611 23.8116 -0.0000 0.0000 11.0014 2.6605 -11.1142 85.8758 -0.0000 -0.0000 -38.3457 -36.8546 -11.7087 20.9314 0.0000 0.0000
 27.4998 24.5175 -25.6160 -90.7381 15.6406 92.4848 -48.9669 -3.5117 2.6616 -62.1114 2.8272 4.7647 -59.1767 -25.0176 25.8240 -37.6063 -35.5617 10.3914 -11.3320 0.0000 -23.2011 -3.9565 -0.5134 97.3816 33.1476 -0.0000 26.2537 -26.9928 6.1331 -34.1793 -70.0408 30.5884 -11.1442 16.6108 0.0000 15.1428 -1.6581 0.3298 -101.2464 32.8623 0.0000 -24.3270 9.0122 6.8196 9.8235 86.8578 -0.0000 -0.0000 -41.0144 28.3922 12.9006 23.8774 -0.0000 0.0000 10.9485 2.6788 -11.2099 85.9990 -0.0000 0.0000 -38.3988 -36.8525 -11.7051 20.8778 -0.0000 0.0000
 27.5227 24.5021 -25.6097 -90.7711 15.5401 92.4962 -48.8389 -3.5300 2.6358 -62.0951 2.7770 4.7978 -59.0228 -24.9746 25.8261 -37.8607 -35.4673 10.3479 -11.5749 0.0000 -23.0877 -3.8964 -0.5121 97.4765 33.1476 -0.0000 26.2537 -26.8567 6.0549 -34.1664 -70.2619 30.5698 -11.0945 16.8218 0.0000 15.2074 -1.6130 0.3237 -101.3447 32.8623 0.0000 -24.3270 9.0797 6.7770 9.8637 86.9678 0.0000 -0.0000 -41.0875 28.3848 12.8915 23.8659 -0.0000 0.0000 11.0403 2.6391 -11.1961 86.0914 -0.0000 0.0000 -38.5023 -36.8722 -11.7820 20.8188 -0.0000 0.0000
 27.5446 24.4851 -25.6035 -90.7706 15.4929 92.5020 -48.7921 -3.5419 2.6289 -61.9433 2.7436 4.8176 -58.9319 -24.9793 25.8179 -37.9981 -35.3725 10.2870 -11.7692 0.0000 -22.9726 -3.8202 -0.5099 97.5908 33.1476 -0.0000 26.2537 -26.8676 6.0949 -34.1395 -70.4304 30.5375 -10.9087 17.1226 0.0000 15.3732 -1.8138 0.3687 -101.4861 32.8623 0.0000 -24.3270 9.1016 6.7737 9.8977 87.0702 -0.0000 0.0000 -41.1784 28.3450 12.9087 23.9677 0.0000 -0.0000 11.0644 2.6445 -11.1921 86.2001 0.0000 -0.0000 -38.6136 -36.8896 -11.8624 20.8598 -0.0000 0.0000
 27.5663 24.4664 -25.5974 -90.7636 15.4721 92.5190 -48.8104 -3.5555 2.6097 -61.6788 2.6647 4.8200 -58.9454 -25.0213 25.7529 -38.0723 -35.3310 10.1493 -11.9459 0.0000 -22.7919 -3.7668 -0.5101 97.7009 33.1476 -0.0000 26.2537 -26.9462 6.1988 -34.0747 -70.7408 30.5514 -10.5470 17.4487 0.0000 15.7177 -1.8791 0.3984 -101.9664 32.8623 0.0000 -24.3270 9.0948 6.7732 9.9143 87.1758 -0.0000 -0.0000 -41.2508 28.3217 12.9313 23.9573 -0.0000 0.0000 11.0498 2.6503 -11.2077 86.3310 -0.0000 -0.0000 -38.6550 -36.8980 -11.8061 20.8076 -0.0000 0.0000
 27.5847 24.4433 -25.5961 -90.7230 15.4915 92.5631 -48.8676 -3.4919 2.6039 -61.3827 2.5206 4.7494 -58.9846 -25.0828 25.6424 -38.1224 -35.2679 10.0339 -12.1583 0.0000 -22.5936 -3.7391 -0.5135 97.8092 33.1476 -0.0000 26.2537 -26.9927 6.2978 -34.0468 -71.0419 30.5006 -10.2250 17.8403 0.0000 16.0987 -1.8282 0.3883 -101.9872 32.8623 0.0000 -24.3270 9.0478 6.7908 9.8669 87.2858 -0.0000 -0.0000 -41.3216 28.3078 12.9828 23.9904 0.0000 0.0000 10.9789 2.6792 -11.2910 86.4789 0.0000 0.0000 -38.7327 -36.8761 -11.8170 20.9010 0.0000 -0.0000
 27.6070 24.4184 -25.5880 -90.7239 15.4184 92.5678 -48.7689 -3.4775 2.5851 -61.2532 2.4393 4.7406 -59.1429 -25.1257 25.5095 -38.1856 -35.2592 9.8606 -12.3537 0.0000 -22.4202 -3.5276 -0.4927 97.9408 33.1476 -0.0000 26.2537 -26.8455 6.3085 -34.0043 -71.2943 30.4019 -10.2071 18.1831 0.0000 16.2902 -1.5130 0.3140 -101.7211 32.8623 0.0000 -24.3270 9.0657 6.7795 9.9058 87.4300 0.0000 -0.0000 -41.4054 28.3017 12.9552 23.9312 -0.0000 0.0000 11.0011 2.6757 -11.2904 86.6393 0.0000 -0.0000 -38.8905 -36.8791 -11.9629 21.0220 0.0000 -0.0000
 27.6304 24.3942 -25.5778 -90.7321 15.3257 92.5665 -48.6806 -3.4994 2.5697 -60.9674 2.4282 4.6986 -59.2392 -25.1263 25.3928 -38.4289 -35.2502 9.5700 -12.6525 0.0000 -22.1521 -3.5357 -0.5083 98.1711 33.1476 -0.0000 26.2537 -26.8837 6.3918 -33.9194 -71.5475 30.3985 -9.9645 18.5259 0.0000 16.6377 -1.3837 0.2888 -101.7865 32.8623 0.0000 -24.3270 9.1132 6.7595 9.9595 87.5652 -0.0000 0.0000 -41.5124 28.2615 13.0017 23.9792 -0.0000 -0.0000 11.0517 2.6724 -11.2666 86.7814 0.0000 0.0000 -38.9961 -36.9081 -11.9971 21.0761 0.0000 0.0000
 27.6482 24.3646 -25.5734 -90.6926 15.3191 92.5762 -48.7152 -3.4639 2.5966 -60.6120 2.3637 4.5760 -59.1640 -25.0727 25.2982 -38.7834 -35.1979 9.3146 -13.0259 0.0000 -21.8175 -3.5247 -0.5164 98.3252 33.1476 -0.0000 26.2537 -26.9560 6.5325 -33.8799 -71.7739 30.3153 -9.6605 19.0161 0.0000 17.0501 -1.3674 0.2856 -101.7945 32.8623 0.0000 -24.3270 9.0687 6.7652 9.9443 87.7068 -0.0000 0.0000 -41.6067 28.2677 13.0160 24.0012 0.0000 -0.0000 10.9867 2.7131 -11.3001 86.9539 0.0000 -0.0000 -39.0898 -36.9104 -12.0267 21.1265 0.0000 0.0000
 27.6675 24.3331 -25.5649 -90.6672 15.2909 92.5620 -48.7042 -3.4663 2.6134 -60.2951 2.3332 4.5146 -59.1646 -25.0747 25.2089 -39.1407 -35.1095 9.0162 -13.4454 0.0000 -21.4553 -3.4342 -0.5159 98.5324 33.1476 -0.0000 26.2537 -26.9719 6.6161 -33.8134 -72.1055 30.2439 -9.3555 19.5011 0.0000 17.4402 -1.2984 0.2714 -101.8054 32.8623 0.0000 -24.3270 9.0418 6.7574 9.9701 87.8572 0.0000 -0.0000 -41.7187 28.2597 13.0888 24.0117 0.0000 -0.0000 10.9403 2.7512 -11.2888 87.1290 -0.0000 0.0000 -39.1107 -36.9717 -11.8857 20.8038 -0.0000 0.0000
 27.6872 24.2975 -25.5575 -90.6420 15.2397 92.5641 -48.6525 -3.4780 2.6172 -59.9435 2.3052 4.4616 -59.1487 -25.1159 25.0812 -39.4088 -34.9759 8.8763 -13.9424 0.0000 -21.1431 -3.2847 -0.5052 98.7345 33.1476 -0.0000 26.2537 -26.9135 6.7494 -33.7936 -72.6402 30.0089 -9.0299 20.2121 0.0000 18.0122 -1.2633 0.2630 -101.7571 32.8623 0.0000 -24.3270 9.0227 6.7473 9.9796 88.0261 0.0000 -0.0000 -41.8305 28.2511 13.1533 24.0467 0.0000 0.0000 10.9092 2.7784 -11.3032 87.3226 -0.0000 -0.0000 -39.3213 -36.8990 -12.1548 21.0287 0.0000 -0.0000
 27.7054 24.2617 -25.5509 -90.6015 15.1949 92.5660 -48.6375 -3.4579 2.6286 -59.5233 2.2359 4.3612 -59.1185 -25.1175 24.9839 -39.8312 -34.8134 8.5439 -14.5076 0.0000 -20.7537 -2.9373 -0.4631 98.9510 33.1476 -0.0000 26.2537 -26.8144 6.8446 -33.7809 -73.1927 29.7754 -8.6804 20.9106 0.0000 18.5345 -1.1460 0.2385 -101.7563 32.8623 0.0000 -24.3270 8.9991 6.7472 9.9684 88.1848 -0.0000 0.0000 -41.9467 28.2643 13.2350 24.0837 -0.0000 -0.0000 10.8640 2.8289 -11.3235 87.5180 0.0000 0.0000 -39.3445 -36.9444 -12.0551 20.7290 0.0000 0.0000
